PathFileType	4	(X/Y/Z)	c:/Users/goper/Files/vsCode/490R/osim_files/C07/C07_SSWS_02.trc
DataRate	CameraRate	NumFrames	NumMarkers	Units                	OrigDataRate	OrigDataStartFrame	OrigNumFrames
250.00	250.00	5	36	mm	250.0	2268	3023
                Frame#	Time	LPSIS			LASIS			LTH1			LTH2			LTH3			LTH4			LLFE			LMFE			LSH1			LSH2			LSH3			LSH4			LLMAL			LMMAL			LCAL			LMTP5			LTOE			LMTP1			RPSIS			RASIS			RTH1			RTH2			RTH3			RTH4			RLFE			RMFE			RSH1			RSH2			RSH3			RSH4			RLMAL			RMMAL			RCAL			RMTP1			RTOE			RMTP5		
		X1	Y1	Z1	X2	Y2	Z2	X3	Y3	Z3	X4	Y4	Z4	X5	Y5	Z5	X6	Y6	Z6	X7	Y7	Z7	X8	Y8	Z8	X9	Y9	Z9	X10	Y10	Z10	X11	Y11	Z11	X12	Y12	Z12	X13	Y13	Z13	X14	Y14	Z14	X15	Y15	Z15	X16	Y16	Z16	X17	Y17	Z17	X18	Y18	Z18	X19	Y19	Z19	X20	Y20	Z20	X21	Y21	Z21	X22	Y22	Z22	X23	Y23	Z23	X24	Y24	Z24	X25	Y25	Z25	X26	Y26	Z26	X27	Y27	Z27	X28	Y28	Z28	X29	Y29	Z29	X30	Y30	Z30	X31	Y31	Z31	X32	Y32	Z32	X33	Y33	Z33	X34	Y34	Z34	X35	Y35	Z35	X36	Y36	Z36

2268	9.06800	-2002.39709	998.90204	272.79291	-2176.67529	987.62518	342.06830	-2169.28589	783.95398	391.96774	-2207.39282	713.74585	392.89828	-2241.82617	647.60956	383.04565	-2276.61841	752.52307	371.14767	-2259.83057	534.04572	358.50534	-2262.28687	522.18658	243.80658	0.00000	0.00000	0.00000	0.00000	0.00000	0.00000	-2175.50977	394.74136	369.49960	-2143.20288	362.28723	367.25757	-1978.99255	262.16168	341.00534	-2014.95581	250.06381	271.48737	-1898.14001	258.77460	291.05811	-2003.45837	119.91462	381.40939	-2052.29028	81.40332	331.90872	-2021.40051	88.77326	279.01611	-2003.49695	1012.75836	173.29160	-2162.47559	990.91101	87.88703	-2127.41528	833.42877	38.75013	-2133.04272	754.64691	41.43349	-2136.22607	672.96985	51.20921	-2204.40674	761.24664	73.22397	-2123.21460	496.41812	93.21001	-2120.96606	508.04059	203.21039	-2059.20654	314.42661	89.46594	-2087.90234	265.63248	90.03914	-2120.13257	315.84012	91.59583	-2116.23779	273.18549	96.08350	-2058.35718	95.90244	145.02467	-2090.44849	105.55678	222.00308	-2010.29297	46.57520	197.20387	-2223.54736	40.17995	200.74223	-2242.06250	52.41142	149.86772	-2187.35938	40.48626	95.48444
2269	9.07200	-2006.13110	999.23810	272.62839	-2180.42480	987.94165	341.54758	-2174.70264	784.70404	391.53458	-2213.50244	714.76611	392.29651	-2248.04980	648.75793	382.19897	-2282.08911	753.91339	370.07703	-2268.42432	536.36041	358.14746	-2268.45776	523.56122	242.62634	0.00000	0.00000	0.00000	0.00000	0.00000	0.00000	-2183.49463	394.95673	368.38669	-2153.25269	362.50955	366.80600	-1988.80383	259.51096	340.01831	-2024.89258	248.21533	270.43045	-1907.79810	254.46964	290.34454	-2016.32446	118.05695	380.30005	-2065.99170	80.71618	330.59137	-2034.55078	87.35136	277.86008	-2007.21863	1012.96320	173.06003	-2166.02148	990.74860	87.39942	-2130.12939	833.40210	38.45757	-2135.34717	754.54980	41.17879	-2138.06934	672.81738	51.04536	-2206.55981	760.78375	73.00397	-2124.28711	496.38889	93.14045	-2122.56958	507.93021	203.09085	-2059.55469	314.68573	89.59672	-2088.13965	265.76965	90.13814	-2120.54858	315.84360	91.45233	-2116.50415	273.18784	96.00052	-2058.29980	96.11191	145.15057	-2090.56641	105.63641	222.05934	-2010.35620	46.63609	197.25725	-2223.51782	40.13929	200.74966	-2241.99341	52.31816	149.80330	-2187.35645	40.44279	95.49388
2270	9.07600	-2009.82922	999.70239	272.45575	-2184.32397	988.33960	340.96426	-2180.12695	785.46918	391.10809	-2219.56372	715.78387	391.69470	-2254.16675	649.89917	381.32166	-2287.44604	755.27106	369.06558	-2272.73779	536.51666	355.84662	-2274.52173	524.88861	241.46873	0.00000	0.00000	0.00000	0.00000	0.00000	0.00000	-2191.46729	395.07788	367.24191	-2160.16943	361.26160	364.63101	-1998.54675	256.84372	338.95673	-2034.74622	246.32059	269.30725	-1917.41223	249.99783	289.69775	-2029.55762	116.29413	379.15057	-2079.52222	79.79253	329.21341	-2047.78601	85.80360	276.64670	-2010.94702	1013.21741	172.86830	-2169.52271	990.57758	86.99669	-2132.79272	833.29120	38.15309	-2137.51782	754.41278	40.91775	-2139.83911	672.65948	50.88308	-2208.82788	760.35834	72.73696	-2125.47559	496.34418	93.07524	-2124.20386	507.86758	203.06859	-2059.86499	314.93976	89.78186	-2088.36230	265.91696	90.18762	-2121.07397	316.18427	91.90565	-2116.61865	273.15433	95.95165	-2058.31494	96.27687	145.32079	-2090.72144	105.74320	222.13052	-2010.35291	46.74245	197.30011	-2223.55444	40.12779	200.74132	-2241.98706	52.25230	149.78183	-2187.35400	40.43270	95.47678
2271	9.08000	-2013.63770	1000.03857	272.31015	-2188.11353	988.74225	340.59381	-2185.54932	786.24274	390.68851	-2225.56152	716.79193	391.09256	-2260.42554	651.09308	380.50034	-2292.70483	756.55353	368.04413	-2279.19189	537.68085	354.59665	-2280.51074	526.17889	240.31175	0.00000	0.00000	0.00000	0.00000	0.00000	0.00000	-2199.42871	395.10413	366.05899	-2168.83984	360.63913	363.41815	-2008.36243	254.02907	337.85104	-2044.47876	244.12999	268.14264	-1927.06775	245.48364	288.98404	-2043.21484	114.66699	378.02557	-2093.47046	79.12598	327.67462	-2061.16895	84.29113	275.35178	-2014.55164	1013.49274	172.60899	-2173.04468	990.40643	86.51858	-2135.38281	833.24225	37.79961	-2139.64795	754.26709	40.63639	-2141.54688	672.50568	50.71924	-2211.07031	759.98547	72.43660	-2126.49487	496.32385	93.03867	-2125.82715	507.78040	203.01062	-2060.30933	315.22632	90.05300	-2088.51172	266.03116	90.24154	-2121.44897	315.85187	91.23866	-2117.00952	273.24759	95.83270	-2058.27832	96.47269	145.48100	-2090.93408	105.87077	222.20027	-2010.50049	46.86692	197.47298	-2223.62402	40.15966	200.75247	-2242.07690	52.23303	149.76390	-2187.40674	40.43306	95.48579
2272	9.08400	-2017.42468	1000.42572	272.17548	-2191.99854	989.05084	340.08865	-2190.95996	787.01813	390.27612	-2231.48047	717.78302	390.48972	-2266.44775	652.21045	379.56876	-2298.14282	757.85724	367.05841	-2287.54248	539.76929	354.32626	-2285.99707	527.26105	239.19058	0.00000	0.00000	0.00000	0.00000	0.00000	0.00000	-2207.37915	395.03476	364.83151	-2177.54663	360.02109	362.06781	-2018.39563	251.09442	336.75711	-2054.49878	242.03358	266.88489	-1936.85315	240.88786	288.31232	-2056.79956	113.06461	376.76630	-2107.13257	78.14126	326.20755	-2074.54443	82.74753	273.98331	-2018.20471	1013.71454	172.44424	-2176.53101	990.18604	86.03379	-2137.93726	833.23267	37.53473	-2141.70020	754.15479	40.39227	-2143.20850	672.36560	50.55012	-2213.25684	759.53448	72.08897	-2127.71997	496.32849	92.98112	-2127.63281	507.78833	202.93433	-2060.69580	315.47824	90.30435	-2088.69336	266.17487	90.28793	-2121.92871	315.89279	91.09221	-2117.23120	273.28653	95.70484	-2058.28247	96.68127	145.66434	-2091.14648	106.00919	222.25179	-2010.56189	47.03529	197.55646	-2224.26465	40.42637	201.09576	-2242.44019	52.19725	149.96628	-2187.43481	40.40289	95.49000
